# xmcd
#
# Track frame offsets:
# 225
# 17204
# 30543
# 45845
# 57631
# 71381
# 85345
# 100840
# 118665
# 135196
# 150695
# 166215
# 182292
#
# Disc length: 2637 seconds
#
#
# Revision: 1
# Processed by: cddbd v1.4PL0 Copyright (c) Steve Scherf et al.
# Submitted via: FreeRIP 2.00 
#
DISCID=990a4a0d
DTITLE=Arnulfo Jr. - Por Amor A Ti
DYEAR=2002
DGENRE=Latin
TTITLE0=Perdona Mi Franqueza (Bolero)
TTITLE1=Niña Caprichosa (Cumbia)
TTITLE2=Por Ti (Ranchera)
TTITLE3=Si Tu No Vuelves (Ranchera)
TTITLE4=Nadie Me Vera Llorar (Cumbia)
TTITLE5=Que Te Perdone Dios (Ranchera)
TTITLE6=Que Seas Feliz (Ranchera)
TTITLE7=Por Amor A Ti (Balada)
TTITLE8=Soy De La Calle (Cumbia)
TTITLE9=Y Sabes Por Que "No Mi Amigo" (Ranchera/Valseada)
TTITLE10=Que Seas Feliz (Balada)
TTITLE11=Cuando Menos Lo Esperaba (Ranchera)
TTITLE12=Por Amor A Ti (Cumbia)
EXTD=
EXTT0=
EXTT1=
EXTT2=
EXTT3=
EXTT4=
EXTT5=
EXTT6=
EXTT7=
EXTT8=
EXTT9=
EXTT10=
EXTT11=
EXTT12=
PLAYORDER=
